<svg width="16" height="16" viewBox="0 0 16 16" fill="none" xmlns="http://www.w3.org/2000/svg">
<path d="M1.99287 4.92C1.91526 4.99741 1.85369 5.08937 1.81168 5.19061C1.76967 5.29185 1.74805 5.40039 1.74805 5.51C1.74805 5.61961 1.76967 5.72815 1.81168 5.82939C1.85369 5.93063 1.91526 6.02259 1.99287 6.1L7.53287 11.64C7.59455 11.7018 7.66781 11.7508 7.74845 11.7843C7.8291 11.8177 7.91556 11.835 8.00287 11.835C8.09018 11.835 8.17664 11.8177 8.25729 11.7843C8.33793 11.7508 8.41119 11.7018 8.47287 11.64L14.0129 6.1C14.3395 5.77333 14.3395 5.24666 14.0129 4.92C13.6862 4.59333 13.1595 4.59333 12.8329 4.92L7.99954 9.74666L3.1662 4.91333C2.8462 4.59333 2.31287 4.59333 1.99287 4.92Z" fill="white"/>
</svg>
