<svg width="18" height="19" viewBox="0 0 18 19" fill="none" xmlns="http://www.w3.org/2000/svg">
<g clip-path="url(#clip0_1207_380)">
<path d="M9.54492 3.54428H8.41992V10.1539L12.4842 12.1932L12.9672 11.1205L9.54492 9.40341V3.54428Z" fill="#212427"/>
<path d="M9 0.59375C4.34025 0.59375 0.5625 4.58138 0.5625 9.5C0.5625 14.4186 4.34025 18.4062 9 18.4062C13.6597 18.4062 17.4375 14.4186 17.4375 9.5C17.4375 4.58138 13.6597 0.59375 9 0.59375ZM9 17.2188C4.96125 17.2188 1.6875 13.7631 1.6875 9.5C1.6875 5.23688 4.96125 1.78125 9 1.78125C13.0387 1.78125 16.3125 5.23688 16.3125 9.5C16.3125 13.7631 13.0387 17.2188 9 17.2188Z" fill="#212427"/>
</g>
<defs>
<clipPath id="clip0_1207_380">
<rect width="18" height="19" fill="white"/>
</clipPath>
</defs>
</svg>
