<svg width="16" height="16" viewBox="0 0 16 16" fill="none" xmlns="http://www.w3.org/2000/svg">
<path d="M9 7.4H13.1V13C13.1 13.4243 12.9314 13.8313 12.6314 14.1314C12.3313 14.4314 11.9243 14.6 11.5 14.6H4.5C4.07565 14.6 3.66869 14.4314 3.36863 14.1314C3.06857 13.8313 2.9 13.4243 2.9 13V3C2.9 2.57565 3.06857 2.16869 3.36863 1.86863C3.66869 1.56857 4.07565 1.4 4.5 1.4H7.1V5.5C7.1 6.00391 7.30018 6.48718 7.6565 6.8435C8.01282 7.19982 8.49609 7.4 9 7.4Z" stroke="#F1C40F" stroke-width="0.8"/>
<path d="M13.1006 5.89343L8.60656 1.39937C8.59782 1.39068 8.58671 1.38477 8.57462 1.38238C8.56253 1.37999 8.55001 1.38123 8.53862 1.38594C8.52723 1.39065 8.51749 1.39862 8.51062 1.40885C8.50375 1.41908 8.50005 1.43111 8.5 1.44343V5.5C8.5 5.6326 8.55268 5.75978 8.64645 5.85355C8.74021 5.94732 8.86739 6 9 6H13.0566C13.0689 5.99994 13.0809 5.99625 13.0911 5.98938C13.1014 5.98251 13.1093 5.97277 13.1141 5.96138C13.1188 5.94999 13.12 5.93746 13.1176 5.92538C13.1152 5.91329 13.1093 5.90217 13.1006 5.89343Z" fill="#F1C40F"/>
</svg>
