<svg width="18" height="19" viewBox="0 0 18 19" fill="none" xmlns="http://www.w3.org/2000/svg">
<path d="M14.4705 12.753L11.91 10.9963L12.8752 9.12871C13.0912 8.71783 13.218 8.22858 13.2188 7.70687V4.75C13.2188 2.45417 11.4555 0.59375 9.28125 0.59375C7.107 0.59375 5.34375 2.45496 5.34375 4.75V7.70687C5.3445 8.22779 5.47125 8.71783 5.69475 9.14375L5.68725 9.12871L6.6525 10.9963L4.092 12.753C3.31725 13.2881 2.8125 14.2001 2.8125 15.2364C2.8125 15.238 2.8125 15.2404 2.8125 15.242V18.4062H15.75V15.242C15.75 15.2404 15.75 15.238 15.75 15.2364C15.75 14.2001 15.2453 13.2881 14.481 12.7601L14.4705 12.753ZM14.625 17.2188H3.9375V15.242C3.9375 15.2412 3.9375 15.2396 3.9375 15.2388C3.9375 14.6173 4.2405 14.0695 4.69875 13.7528L4.7055 13.7489L8.139 11.3929L6.675 8.56029C6.54525 8.31408 6.4695 8.02038 6.46875 7.70767V4.75079C6.46875 3.11125 7.728 1.78204 9.28125 1.78204C10.8345 1.78204 12.0938 3.11125 12.0938 4.75079V7.70767C12.0938 8.02038 12.0173 8.31408 11.883 8.56979L11.8875 8.56029L10.4235 11.3937L13.857 13.7497C14.322 14.0711 14.625 14.6181 14.625 15.2396C14.625 15.2404 14.625 15.242 14.625 15.2428V17.2188Z" fill="#212427"/>
</svg>
