<svg width="36" height="36" viewBox="0 0 36 36" fill="none" xmlns="http://www.w3.org/2000/svg">
<path fill-rule="evenodd" clip-rule="evenodd" d="M21.25 8.16927L21.25 8.15V4.5H11.4C10.5599 4.5 10.1399 4.5 9.81901 4.66349C9.53677 4.8073 9.3073 5.03677 9.16349 5.31901C9 5.63988 9 6.05992 9 6.9V12.5H12.7047L12.764 12.4999C12.996 12.4994 13.2588 12.4989 13.5165 12.5608C13.741 12.6147 13.9556 12.7036 14.1524 12.8242C14.3785 12.9627 14.5639 13.1489 14.7276 13.3133L14.7695 13.3552L18.1448 16.7305C18.2547 16.8405 18.3141 16.8995 18.3603 16.9417C18.3804 16.9601 18.3915 16.9691 18.3959 16.9726C18.4118 16.9818 18.4288 16.9889 18.4465 16.9935C18.4522 16.9942 18.4664 16.9957 18.4935 16.9969C18.5561 16.9998 18.6398 17 18.7953 17H27V10.25H23.35L23.3307 10.25C23.0672 10.25 22.8398 10.25 22.6525 10.2347C22.4548 10.2186 22.2582 10.1829 22.069 10.0865C21.7868 9.9427 21.5573 9.71323 21.4135 9.43098C21.3171 9.2418 21.2814 9.04519 21.2653 8.84751C21.25 8.66023 21.25 8.43286 21.25 8.16929V8.16928V8.16927ZM26.618 19H18.7953L18.736 19.0001H18.736C18.504 19.0006 18.2412 19.0011 17.9835 18.9392C17.759 18.8853 17.5444 18.7964 17.3476 18.6758C17.1215 18.5373 16.9361 18.3511 16.7724 18.1867L16.7305 18.1448L13.3552 14.7695C13.2453 14.6595 13.1859 14.6005 13.1397 14.5583C13.1196 14.5399 13.1085 14.5309 13.1041 14.5274C13.0882 14.5182 13.0712 14.5111 13.0535 14.5065C13.0478 14.5058 13.0336 14.5043 13.0065 14.5031C12.9439 14.5002 12.8602 14.5 12.7047 14.5H9V17.1C9 17.9401 9 18.3601 9.16349 18.681C9.3073 18.9632 9.53677 19.1927 9.81901 19.3365C10.1399 19.5 10.5599 19.5 11.4 19.5H24.6C25.4401 19.5 25.8601 19.5 26.181 19.3365C26.3472 19.2518 26.4951 19.1374 26.618 19ZM22.25 8.15V4.51438C22.2739 4.51788 22.2967 4.52222 22.3192 4.52763C22.4213 4.55213 22.5188 4.59253 22.6083 4.64736C22.7092 4.7092 22.7957 4.79568 22.9686 4.96862L22.9686 4.96863L26.5314 8.53137C26.7043 8.70432 26.7908 8.7908 26.8526 8.89172C26.9075 8.98119 26.9479 9.07873 26.9724 9.18077C26.9778 9.20328 26.9821 9.22607 26.9856 9.25H23.35C23.0617 9.25 22.8756 9.24961 22.7339 9.23804C22.5981 9.22694 22.5477 9.2081 22.523 9.1955C22.4289 9.14757 22.3524 9.07108 22.3045 8.97699C22.2919 8.95227 22.2731 8.90191 22.262 8.76608C22.2504 8.62441 22.25 8.43828 22.25 8.15Z" fill="white"/>
<path d="M4.5 15.9C4.5 15.0599 4.5 14.6399 4.66349 14.319C4.8073 14.0368 5.03677 13.8073 5.31901 13.6635C5.63988 13.5 6.05992 13.5 6.9 13.5H12.7047C12.9982 13.5 13.145 13.5 13.2831 13.5332C13.4055 13.5626 13.5226 13.611 13.6299 13.6768C13.751 13.751 13.8548 13.8548 14.0624 14.0624L17.4376 17.4376C17.6452 17.6452 17.749 17.749 17.8701 17.8232C17.9774 17.889 18.0945 17.9374 18.2169 17.9668C18.355 18 18.5018 18 18.7953 18H29.1C29.9401 18 30.3601 18 30.681 18.1635C30.9632 18.3073 31.1927 18.5368 31.3365 18.819C31.5 19.1399 31.5 19.5599 31.5 20.4V30.6C31.5 31.4401 31.5 31.8601 31.3365 32.181C31.1927 32.4632 30.9632 32.6927 30.681 32.8365C30.3601 33 29.9401 33 29.1 33H6.9C6.05992 33 5.63988 33 5.31901 32.8365C5.03677 32.6927 4.8073 32.4632 4.66349 32.181C4.5 31.8601 4.5 31.4401 4.5 30.6V15.9Z" fill="#33363F"/>
</svg>
