<svg width="16" height="16" viewBox="0 0 16 16" fill="none" xmlns="http://www.w3.org/2000/svg">
<path d="M3.68 11.0933L3.2 11.7333H4H12H12.8L12.32 11.0933L9.82 7.76L9.5 7.33333L9.18 7.76L7.5 10L6.32 8.42667L6 8L5.68 8.42667L3.68 11.0933ZM3.33333 13.6C3.07367 13.6 2.86118 13.5123 2.67435 13.326C2.48778 13.1391 2.4 12.9265 2.4 12.6667V3.33333C2.4 3.07359 2.48772 2.86105 2.67418 2.67418C2.86105 2.48772 3.07359 2.4 3.33333 2.4H12.6667C12.9265 2.4 13.1391 2.48778 13.326 2.67435C13.5123 2.86118 13.6 3.07367 13.6 3.33333V12.6667C13.6 12.9264 13.5123 13.1389 13.3258 13.3258C13.1389 13.5123 12.9264 13.6 12.6667 13.6H3.33333Z" stroke="#EDDEA1" stroke-width="0.8"/>
</svg>
