<svg width="18" height="20" viewBox="0 0 18 20" fill="none" xmlns="http://www.w3.org/2000/svg">
<path d="M15.8297 13.3275L14.2945 10.3358V7.22058C14.2945 4.11012 11.8975 1.57996 8.95073 1.57996C6.00398 1.57996 3.60698 4.11012 3.60698 7.22058V10.3358L2.07173 13.3275C2.00798 13.4502 1.96973 13.5959 1.96973 13.7518C1.96973 14.2435 2.34773 14.6425 2.81348 14.6425H5.86973C5.86148 14.7406 5.85698 14.8396 5.85698 14.9393C5.85698 16.7427 7.24223 18.205 8.95073 18.205C10.6592 18.205 12.0445 16.7427 12.0445 14.9393C12.0445 14.8396 12.04 14.7406 12.0317 14.6425H15.088C15.5537 14.6425 15.9317 14.2435 15.9317 13.7518C15.9317 13.5967 15.8942 13.4502 15.8275 13.3227L15.8297 13.3275ZM10.9195 14.9393C10.9195 14.9401 10.9195 14.9401 10.9195 14.9409C10.9195 16.0888 10.0382 17.019 8.95073 17.019C7.86323 17.019 6.98198 16.0888 6.98198 14.9409C6.98198 14.8356 6.98948 14.7319 7.00373 14.6306L7.00223 14.6417H10.8992C10.912 14.7311 10.9195 14.834 10.9195 14.9385V14.9393ZM3.28598 13.455L4.73198 10.6366V7.22058C4.73198 4.76087 6.62048 2.76746 8.95073 2.76746C11.281 2.76746 13.1695 4.76087 13.1695 7.22058V10.6366L14.6155 13.455H3.28598Z" fill="#212427"/>
</svg>
