<svg width="16" height="16" viewBox="0 0 16 16" fill="none" xmlns="http://www.w3.org/2000/svg">
<path d="M13.0378 7.38125L11.2691 9.15C10.6822 9.73433 9.88782 10.0624 9.05968 10.0624C8.23155 10.0624 7.43714 9.73433 6.85031 9.15C6.81543 9.11512 6.78776 9.07371 6.76888 9.02814C6.75 8.98256 6.74028 8.93371 6.74028 8.88438C6.74028 8.83505 6.75 8.7862 6.76888 8.74062C6.78776 8.69505 6.81543 8.65364 6.85031 8.61875C6.88519 8.58387 6.9266 8.5562 6.97218 8.53732C7.01776 8.51845 7.0666 8.50873 7.11593 8.50873C7.16527 8.50873 7.21411 8.51845 7.25969 8.53732C7.30527 8.5562 7.34668 8.58387 7.38156 8.61875C7.82686 9.06339 8.43041 9.31312 9.05968 9.31312C9.68896 9.31312 10.2925 9.06339 10.7378 8.61875L12.5066 6.85001C12.7411 6.6329 12.9295 6.37069 13.0603 6.07908C13.1911 5.78746 13.2617 5.47244 13.2679 5.15289C13.274 4.83333 13.2157 4.51582 13.0962 4.21937C12.9767 3.92292 12.7987 3.65363 12.5727 3.42763C12.3467 3.20163 12.0774 3.02357 11.7809 2.90411C11.4845 2.78466 11.167 2.72627 10.8474 2.73245C10.5279 2.73862 10.2129 2.80923 9.92124 2.94005C9.62962 3.07086 9.36741 3.25919 9.15031 3.49376L7.91281 4.73126C7.84236 4.8017 7.74681 4.84128 7.64718 4.84128C7.54756 4.84128 7.45201 4.8017 7.38156 4.73126C7.31111 4.66081 7.27153 4.56526 7.27153 4.46563C7.27153 4.366 7.31111 4.27045 7.38156 4.20001L8.61906 2.96251C8.90881 2.67168 9.25313 2.44092 9.63227 2.28346C10.0114 2.126 10.4179 2.04495 10.8284 2.04495C11.239 2.04495 11.6455 2.126 12.0246 2.28346C12.4037 2.44092 12.7481 2.67168 13.0378 2.96251C13.6237 3.54853 13.9528 4.34324 13.9528 5.17188C13.9528 6.00052 13.6237 6.79523 13.0378 7.38125ZM8.08781 11.2688L6.85031 12.5063C6.39969 12.9233 5.80507 13.1497 5.19118 13.1378C4.57729 13.1259 3.99185 12.8768 3.55768 12.4426C3.12352 12.0085 2.87437 11.423 2.8625 10.8091C2.85064 10.1952 3.07699 9.60062 3.49406 9.15L5.26281 7.38125C5.70811 6.93662 6.31166 6.68689 6.94093 6.68689C7.57021 6.68689 8.17376 6.93662 8.61906 7.38125C8.65394 7.41614 8.69535 7.44381 8.74093 7.46269C8.7865 7.48156 8.83535 7.49128 8.88468 7.49128C8.93401 7.49128 8.98286 7.48156 9.02844 7.46269C9.07402 7.44381 9.11543 7.41614 9.15031 7.38125C9.18519 7.34637 9.21286 7.30496 9.23174 7.25939C9.25062 7.21381 9.26033 7.16496 9.26033 7.11563C9.26033 7.0663 9.25062 7.01745 9.23174 6.97188C9.21286 6.9263 9.18519 6.88489 9.15031 6.85001C8.56428 6.26416 7.76957 5.93505 6.94093 5.93505C6.1123 5.93505 5.31758 6.26416 4.73156 6.85001L2.96281 8.61875C2.37696 9.20478 2.04785 9.99949 2.04785 10.8281C2.04785 11.6568 2.37696 12.4515 2.96281 13.0375C3.54964 13.6218 4.34405 13.9499 5.17218 13.9499C6.00032 13.9499 6.79473 13.6218 7.38156 13.0375L8.61906 11.8C8.68951 11.7296 8.72908 11.634 8.72908 11.5344C8.72908 11.4348 8.68951 11.3392 8.61906 11.2688C8.54861 11.1983 8.45306 11.1587 8.35343 11.1587C8.2538 11.1587 8.15826 11.1983 8.08781 11.2688Z" fill="#E67E22"/>
</svg>
