<svg width="15" height="21" viewBox="0 0 15 21" fill="none" xmlns="http://www.w3.org/2000/svg">
<path d="M14.5144 2.36567V2.26567H14.4144H12.0754V1V0.9H11.9754H11.569H11.469V1V2.26567H3.94554V1V0.9H3.84554H3.43908H3.33908V1V2.26567H1H0.9V2.36567V20.3925V20.4925H1H14.4144H14.5144V20.3925V2.36567ZM12.0753 3.01193H13.9078L13.9079 19.7462H1.50653V3.01193H3.33901V4.55083V4.65083H3.43901H3.84547H3.94547V4.55083V3.01193H11.4689V4.55083V4.65083H11.5689H11.9753H12.0753V4.55083V3.01193Z" fill="#212427" stroke="#212427" stroke-width="0.2"/>
<path d="M7.09766 7.82832H8.31722V12.7447H7.09766V7.82832Z" fill="#212427"/>
<path d="M7.09766 13.5641H8.31722V15.203H7.09766V13.5641Z" fill="#212427"/>
</svg>
