<svg width="18" height="18" viewBox="0 0 18 18" fill="none" xmlns="http://www.w3.org/2000/svg">
<path d="M13.955 10.4004C13.771 10.4005 13.5889 10.3643 13.4189 10.2939C13.2489 10.2236 13.0945 10.1205 12.9643 9.99041C12.8342 9.86037 12.731 9.70598 12.6605 9.53604C12.5901 9.36611 12.5538 9.18396 12.5537 8.99999C12.5537 8.81603 12.5898 8.63386 12.6602 8.46388C12.7305 8.2939 12.8337 8.13943 12.9637 8.00931C13.0937 7.87919 13.2481 7.77595 13.4181 7.7055C13.588 7.63505 13.7701 7.59875 13.9541 7.59869C14.3256 7.59857 14.682 7.74605 14.9448 8.00868C15.2076 8.2713 15.3553 8.62757 15.3554 8.99909C15.3555 9.37062 15.2081 9.72698 14.9454 9.98978C14.6828 10.2526 14.3265 10.4003 13.955 10.4004Z" fill="#212427" fill-opacity="0.5"/>
<path d="M9.14747 10.4004C9.92089 10.4004 10.5479 9.77341 10.5479 8.99999C10.5479 8.22657 9.92089 7.59959 9.14747 7.59959C8.37405 7.59959 7.74707 8.22657 7.74707 8.99999C7.74707 9.77341 8.37405 10.4004 9.14747 10.4004Z" fill="#212427" fill-opacity="0.5"/>
<path d="M4.33888 10.4004C5.1123 10.4004 5.73928 9.77341 5.73928 8.99999C5.73928 8.22657 5.1123 7.59959 4.33888 7.59959C3.56546 7.59959 2.93848 8.22657 2.93848 8.99999C2.93848 9.77341 3.56546 10.4004 4.33888 10.4004Z" fill="#212427" fill-opacity="0.5"/>
</svg>
