<svg width="22" height="16" viewBox="0 0 22 16" fill="none" xmlns="http://www.w3.org/2000/svg">
<path d="M0.166992 1.49457C0.166992 0.89874 0.650159 0.416656 1.24491 0.416656H9.92241C10.2083 0.416657 10.4825 0.530222 10.6846 0.732371C10.8868 0.934519 11.0003 1.20869 11.0003 1.49457C11.0003 1.78045 10.8868 2.05463 10.6846 2.25678C10.4825 2.45892 10.2083 2.57249 9.92241 2.57249H1.24491C0.959027 2.57249 0.684855 2.45892 0.482707 2.25678C0.280558 2.05463 0.166992 1.78045 0.166992 1.49457ZM0.166992 7.99999C0.166992 7.40416 0.650159 6.92207 1.24491 6.92207H20.7557C21.0416 6.92207 21.3158 7.03564 21.5179 7.23779C21.7201 7.43994 21.8337 7.71411 21.8337 7.99999C21.8337 8.28587 21.7201 8.56004 21.5179 8.76219C21.3158 8.96434 21.0416 9.07791 20.7557 9.07791H1.24491C0.959027 9.07791 0.684855 8.96434 0.482707 8.76219C0.280558 8.56004 0.166992 8.28587 0.166992 7.99999ZM1.24491 13.4275C0.959027 13.4275 0.684855 13.5411 0.482707 13.7432C0.280558 13.9454 0.166992 14.2195 0.166992 14.5054C0.166992 14.7913 0.280558 15.0655 0.482707 15.2676C0.684855 15.4698 0.959027 15.5833 1.24491 15.5833H14.2557C14.5416 15.5833 14.8158 15.4698 15.0179 15.2676C15.2201 15.0655 15.3337 14.7913 15.3337 14.5054C15.3337 14.2195 15.2201 13.9454 15.0179 13.7432C14.8158 13.5411 14.5416 13.4275 14.2557 13.4275H1.24491Z" fill="#212427"/>
</svg>
