<svg width="9" height="15" viewBox="0 0 9 15" fill="none" xmlns="http://www.w3.org/2000/svg">
<path d="M0.27633 13.7981C0.363416 13.8854 0.46687 13.9547 0.580768 14.002C0.694664 14.0492 0.816767 14.0735 0.940081 14.0735C1.0634 14.0735 1.1855 14.0492 1.29939 14.002C1.41329 13.9547 1.51675 13.8854 1.60383 13.7981L7.83633 7.56562C7.90586 7.49624 7.96102 7.41382 7.99866 7.32309C8.03629 7.23236 8.05566 7.1351 8.05566 7.03687C8.05566 6.93864 8.03629 6.84138 7.99866 6.75065C7.96102 6.65992 7.90586 6.57751 7.83633 6.50812L1.60383 0.27562C1.23633 -0.0918804 0.643832 -0.0918805 0.276331 0.27562C-0.0911682 0.64312 -0.0911682 1.23562 0.276331 1.60312L5.70633 7.04062L0.268831 12.4781C-0.0911683 12.8381 -0.0911693 13.4381 0.27633 13.7981Z" fill="black"/>
</svg>
