<svg width="18" height="19" viewBox="0 0 18 19" fill="none" xmlns="http://www.w3.org/2000/svg">
<path d="M13.4587 16.625H4.7835C3.70275 16.625 2.62575 16.1532 1.8285 15.3298C1.01175 14.4875 0.5625 13.3871 0.5625 12.232C0.56325 11.0905 1.01025 10.0597 1.72875 9.32267L1.7295 9.32188C2.31675 8.71546 3.06975 8.28479 3.90975 8.113L3.93675 8.10825V8.01562C3.93675 5.06904 6.20775 2.67188 8.99925 2.67188C11.7907 2.67188 14.0618 5.06904 14.0618 8.01562V8.06946C16.0208 8.36396 17.4368 10.0637 17.4368 12.232C17.4368 13.3926 17.037 14.4851 16.311 15.3092C15.6037 16.1191 14.5935 16.625 13.4715 16.625C13.467 16.625 13.4625 16.625 13.458 16.625H13.4587ZM9 3.85938C6.8265 3.86175 5.06475 5.72137 5.0625 8.01562V9.18096L4.53975 9.22054C2.94 9.34088 1.6875 10.6638 1.6875 12.232C1.6875 13.9397 3.13425 15.4375 4.7835 15.4375H13.4587C15.0592 15.4375 16.3125 14.0291 16.3125 12.232C16.3125 10.5038 15.1267 9.234 13.4932 9.21183L12.9375 9.20471V8.01562C12.9353 5.72137 11.1735 3.86175 9 3.85938Z" fill="#212427"/>
</svg>
