<svg width="16" height="16" viewBox="0 0 16 16" fill="none" xmlns="http://www.w3.org/2000/svg">
<path d="M10.4077 11.075L10.408 11.0747C11.0669 10.4153 11.3997 9.60482 11.3997 8.66667C11.3997 7.72851 11.0669 6.91801 10.408 6.2586L10.4077 6.25838C9.74833 5.59947 8.93783 5.26667 7.99967 5.26667C7.06152 5.26667 6.25102 5.59947 5.59161 6.25838L5.59139 6.2586C4.93248 6.91801 4.59967 7.72851 4.59967 8.66667C4.59967 9.60482 4.93248 10.4153 5.59139 11.0747L5.59161 11.075C6.25102 11.7339 7.06152 12.0667 7.99967 12.0667C8.93783 12.0667 9.74833 11.7339 10.4077 11.075ZM2.00761 4.00842L2.00809 4.00794C2.19454 3.82116 2.40672 3.73333 2.66634 3.73333H4.76634H4.94123L5.05998 3.60495L6.17456 2.4H9.82479L10.9394 3.60495L11.0581 3.73333H11.233H13.333C13.5926 3.73333 13.8052 3.82119 13.9922 4.00818C14.1786 4.19458 14.2663 4.40683 14.2663 4.66667V12.6667C14.2663 12.9264 14.1786 13.1389 13.9922 13.3258C13.8053 13.5123 13.5928 13.6 13.333 13.6H2.66634C2.4065 13.6 2.19425 13.5122 2.00785 13.3258C1.82086 13.1388 1.73301 12.9263 1.73301 12.6667V4.66667C1.73301 4.40705 1.82084 4.19487 2.00761 4.00842Z" stroke="#2998BA" stroke-width="0.8"/>
</svg>
